<?xml version="1.0" encoding="UTF-8"?>
<svg xmlns="http://www.w3.org/2000/svg" xmlns:xlink="http://www.w3.org/1999/xlink" width="36px" height="16px" viewBox="0 0 36 16" version="1.1">
<g id="surface1">
<path style=" stroke:none;fill-rule:nonzero;fill:rgb(100%,100%,100%);fill-opacity:1;" d="M 14.746094 0.710938 C 15.273438 1.203125 15.492188 1.976562 15.519531 2.675781 C 15.558594 4.179688 15.015625 5.609375 14.351562 6.929688 C 14.339844 6.957031 14.328125 6.980469 14.316406 7.007812 C 14.15625 7.320312 13.984375 7.625 13.804688 7.925781 C 13.769531 7.988281 13.738281 8.046875 13.703125 8.105469 C 13.527344 8.40625 13.339844 8.695312 13.144531 8.980469 C 13.105469 9.039062 13.066406 9.101562 13.023438 9.160156 C 12.621094 9.757812 12.179688 10.324219 11.707031 10.867188 C 11.675781 10.902344 11.644531 10.941406 11.613281 10.976562 C 11.460938 11.160156 11.296875 11.335938 11.132812 11.507812 C 11.097656 11.550781 11.058594 11.589844 11.023438 11.628906 C 10.871094 11.792969 10.714844 11.953125 10.558594 12.113281 C 10.539062 12.132812 10.519531 12.152344 10.5 12.171875 C 10.402344 12.265625 10.304688 12.359375 10.203125 12.449219 C 10.164062 12.480469 10.125 12.519531 10.089844 12.554688 C 10.027344 12.621094 9.957031 12.679688 9.890625 12.742188 C 9.835938 12.789062 9.78125 12.839844 9.726562 12.886719 C 9.628906 12.976562 9.53125 13.058594 9.429688 13.140625 C 9.371094 13.1875 9.3125 13.238281 9.257812 13.289062 C 9.117188 13.410156 8.972656 13.527344 8.824219 13.636719 C 8.78125 13.671875 8.738281 13.703125 8.695312 13.738281 C 8.464844 13.914062 8.230469 14.078125 7.988281 14.238281 C 7.976562 14.246094 7.960938 14.257812 7.945312 14.269531 C 7.675781 14.445312 7.40625 14.613281 7.125 14.769531 C 7.109375 14.78125 7.089844 14.789062 7.074219 14.796875 C 6.929688 14.878906 6.78125 14.953125 6.628906 15.027344 C 6.582031 15.050781 6.53125 15.074219 6.484375 15.097656 C 5.601562 15.539062 4.625 15.855469 3.648438 15.976562 C 3.621094 15.980469 3.621094 15.980469 3.59375 15.984375 C 3.402344 16.007812 3.210938 16.003906 3.019531 16.003906 C 2.957031 16.003906 2.898438 16.007812 2.835938 16.007812 C 2.039062 16.011719 1.320312 15.773438 0.742188 15.21875 C 0.453125 14.921875 0.273438 14.554688 0.152344 14.164062 C 0.144531 14.140625 0.136719 14.117188 0.125 14.09375 C 0.105469 14 0.105469 13.914062 0.109375 13.820312 C 0.121094 13.824219 0.136719 13.828125 0.148438 13.832031 C 0.402344 13.917969 0.652344 14 0.914062 14.054688 C 0.941406 14.058594 0.941406 14.058594 0.96875 14.066406 C 1.324219 14.136719 1.6875 14.152344 2.046875 14.148438 C 2.066406 14.148438 2.085938 14.148438 2.109375 14.148438 C 3.742188 14.144531 5.207031 13.769531 6.5625 12.824219 C 6.574219 12.816406 6.585938 12.808594 6.601562 12.796875 C 7.015625 12.511719 7.417969 12.195312 7.789062 11.851562 C 7.832031 11.8125 7.875 11.777344 7.917969 11.738281 C 8.15625 11.53125 8.378906 11.3125 8.601562 11.089844 C 8.652344 11.039062 8.703125 10.988281 8.753906 10.9375 C 8.785156 10.90625 8.816406 10.875 8.851562 10.839844 C 8.867188 10.824219 8.878906 10.8125 8.894531 10.796875 C 8.980469 10.710938 9.0625 10.621094 9.140625 10.53125 C 9.183594 10.480469 9.230469 10.429688 9.277344 10.378906 C 9.367188 10.28125 9.449219 10.183594 9.53125 10.082031 C 9.589844 10.011719 9.648438 9.941406 9.710938 9.871094 C 9.828125 9.734375 9.941406 9.59375 10.050781 9.449219 C 10.078125 9.417969 10.105469 9.382812 10.132812 9.347656 C 10.277344 9.160156 10.417969 8.96875 10.558594 8.773438 C 10.59375 8.726562 10.628906 8.675781 10.667969 8.628906 C 10.847656 8.382812 11.015625 8.132812 11.179688 7.878906 C 11.222656 7.820312 11.261719 7.757812 11.300781 7.699219 C 12.136719 6.453125 12.996094 5.070312 13.230469 3.5625 C 13.234375 3.535156 13.238281 3.507812 13.242188 3.480469 C 13.257812 3.347656 13.257812 3.210938 13.257812 3.074219 C 13.257812 3.046875 13.257812 3.019531 13.257812 2.992188 C 13.261719 2.507812 13.09375 2.050781 12.753906 1.703125 C 12.445312 1.402344 12.089844 1.261719 11.660156 1.265625 C 11.636719 1.265625 11.609375 1.265625 11.585938 1.265625 C 10.546875 1.285156 9.5625 1.746094 8.675781 2.246094 C 8.648438 2.261719 8.648438 2.261719 8.621094 2.277344 C 7.8125 2.738281 7.050781 3.300781 6.339844 3.90625 C 6.269531 3.96875 6.195312 4.027344 6.121094 4.085938 C 6.003906 4.183594 5.890625 4.289062 5.78125 4.394531 C 5.695312 4.476562 5.609375 4.554688 5.519531 4.628906 C 5.476562 4.667969 5.4375 4.707031 5.394531 4.75 C 5.34375 4.804688 5.289062 4.855469 5.230469 4.90625 C 5.140625 4.980469 5.0625 5.0625 4.980469 5.144531 C 4.953125 5.175781 4.921875 5.203125 4.894531 5.234375 C 4.847656 5.28125 4.804688 5.324219 4.757812 5.371094 C 4.714844 5.417969 4.671875 5.460938 4.625 5.503906 C 4.605469 5.527344 4.605469 5.527344 4.585938 5.546875 C 4.453125 5.683594 4.304688 5.78125 4.109375 5.789062 C 4.078125 5.789062 4.042969 5.789062 4.011719 5.789062 C 3.996094 5.789062 3.980469 5.789062 3.964844 5.789062 C 3.910156 5.789062 3.855469 5.789062 3.804688 5.789062 C 3.769531 5.789062 3.730469 5.789062 3.695312 5.789062 C 3.609375 5.789062 3.519531 5.789062 3.433594 5.785156 C 3.46875 5.703125 3.523438 5.640625 3.582031 5.570312 C 3.597656 5.550781 3.597656 5.550781 3.613281 5.535156 C 3.703125 5.429688 3.796875 5.324219 3.890625 5.222656 C 3.933594 5.175781 3.976562 5.128906 4.019531 5.078125 C 4.265625 4.800781 4.527344 4.535156 4.789062 4.273438 C 4.84375 4.21875 4.898438 4.164062 4.953125 4.109375 C 4.988281 4.074219 5.023438 4.039062 5.058594 4.003906 C 5.074219 3.988281 5.089844 3.972656 5.109375 3.957031 C 5.195312 3.867188 5.285156 3.785156 5.378906 3.703125 C 5.4375 3.652344 5.496094 3.597656 5.554688 3.542969 C 5.660156 3.445312 5.765625 3.351562 5.878906 3.261719 C 5.933594 3.21875 5.988281 3.171875 6.039062 3.121094 C 6.15625 3.015625 6.285156 2.917969 6.410156 2.820312 C 6.457031 2.785156 6.5 2.75 6.546875 2.714844 C 6.769531 2.535156 6.996094 2.367188 7.230469 2.203125 C 7.246094 2.191406 7.265625 2.175781 7.28125 2.164062 C 7.539062 1.980469 7.800781 1.804688 8.070312 1.640625 C 8.09375 1.628906 8.113281 1.617188 8.136719 1.601562 C 8.542969 1.351562 8.957031 1.117188 9.386719 0.90625 C 9.433594 0.882812 9.484375 0.859375 9.53125 0.835938 C 11.082031 0.0703125 13.285156 -0.546875 14.746094 0.710938 Z M 14.746094 0.710938 "/>
<path style=" stroke:none;fill-rule:nonzero;fill:rgb(100%,100%,100%);fill-opacity:1;" d="M 22.144531 6.414062 C 23.023438 6.414062 23.023438 6.414062 23.921875 6.410156 C 24.101562 6.410156 24.285156 6.410156 24.476562 6.410156 C 24.703125 6.410156 24.703125 6.410156 24.8125 6.410156 C 24.886719 6.410156 24.957031 6.410156 25.03125 6.410156 C 25.4375 6.410156 25.84375 6.410156 26.25 6.417969 C 26.289062 6.417969 26.328125 6.421875 26.367188 6.421875 C 27.039062 6.429688 27.648438 6.574219 28.128906 7.070312 C 28.445312 7.433594 28.5625 7.925781 28.5625 8.394531 C 28.5625 8.421875 28.558594 8.449219 28.558594 8.476562 C 28.558594 8.660156 28.546875 8.828125 28.488281 9.003906 C 28.476562 9.039062 28.476562 9.039062 28.464844 9.074219 C 28.289062 9.574219 27.9375 9.957031 27.460938 10.183594 C 27.050781 10.363281 27.050781 10.363281 26.933594 10.363281 C 26.933594 10.378906 26.933594 10.394531 26.933594 10.40625 C 26.949219 10.410156 26.960938 10.414062 26.972656 10.417969 C 27.394531 10.53125 27.691406 10.832031 27.910156 11.195312 C 27.929688 11.226562 27.929688 11.226562 27.945312 11.257812 C 28.183594 11.652344 28.390625 12.066406 28.601562 12.476562 C 28.667969 12.601562 28.734375 12.726562 28.800781 12.851562 C 28.808594 12.867188 28.816406 12.882812 28.824219 12.902344 C 28.871094 12.984375 28.914062 13.070312 28.960938 13.15625 C 28.96875 13.175781 28.980469 13.191406 28.992188 13.210938 C 29.011719 13.25 29.03125 13.285156 29.050781 13.320312 C 29.058594 13.335938 29.066406 13.355469 29.074219 13.371094 C 29.082031 13.382812 29.089844 13.398438 29.097656 13.414062 C 29.113281 13.453125 29.113281 13.453125 29.113281 13.515625 C 29.066406 13.542969 29.035156 13.542969 28.976562 13.542969 C 28.957031 13.542969 28.9375 13.542969 28.917969 13.542969 C 28.898438 13.542969 28.875 13.542969 28.851562 13.542969 C 28.828125 13.542969 28.808594 13.542969 28.785156 13.542969 C 28.707031 13.542969 28.632812 13.542969 28.558594 13.542969 C 28.503906 13.542969 28.453125 13.542969 28.398438 13.542969 C 28.289062 13.542969 28.179688 13.542969 28.070312 13.542969 C 27.929688 13.542969 27.789062 13.542969 27.644531 13.542969 C 27.539062 13.546875 27.429688 13.546875 27.320312 13.546875 C 27.269531 13.546875 27.21875 13.546875 27.164062 13.546875 C 27.09375 13.546875 27.019531 13.546875 26.945312 13.546875 C 26.925781 13.546875 26.902344 13.546875 26.882812 13.546875 C 26.695312 13.546875 26.695312 13.546875 26.613281 13.472656 C 26.578125 13.425781 26.554688 13.382812 26.527344 13.335938 C 26.515625 13.3125 26.515625 13.3125 26.503906 13.289062 C 26.472656 13.234375 26.445312 13.183594 26.417969 13.128906 C 26.390625 13.082031 26.367188 13.035156 26.34375 12.988281 C 26.292969 12.898438 26.246094 12.804688 26.195312 12.714844 C 26.109375 12.550781 26.019531 12.386719 25.929688 12.222656 C 25.863281 12.101562 25.796875 11.980469 25.730469 11.855469 C 25.671875 11.746094 25.613281 11.640625 25.554688 11.53125 C 25.535156 11.496094 25.535156 11.496094 25.515625 11.460938 C 25.480469 11.394531 25.441406 11.328125 25.40625 11.261719 C 25.394531 11.238281 25.382812 11.21875 25.371094 11.199219 C 25.242188 10.96875 25.082031 10.769531 24.820312 10.6875 C 24.660156 10.65625 24.507812 10.644531 24.34375 10.644531 C 24.34375 10.660156 24.34375 10.675781 24.34375 10.691406 C 24.347656 11.046875 24.347656 11.402344 24.347656 11.757812 C 24.347656 11.929688 24.347656 12.101562 24.351562 12.273438 C 24.351562 12.425781 24.351562 12.574219 24.351562 12.722656 C 24.351562 12.804688 24.351562 12.882812 24.351562 12.960938 C 24.351562 13.050781 24.351562 13.140625 24.351562 13.230469 C 24.351562 13.253906 24.351562 13.28125 24.351562 13.308594 C 24.351562 13.332031 24.351562 13.355469 24.351562 13.382812 C 24.351562 13.402344 24.351562 13.425781 24.351562 13.445312 C 24.351562 13.460938 24.347656 13.476562 24.34375 13.496094 C 23.734375 13.902344 22.878906 13.539062 22.144531 13.539062 C 22.144531 11.1875 22.144531 8.835938 22.144531 6.414062 Z M 24.367188 7.882812 C 24.332031 8.023438 24.34375 8.175781 24.34375 8.320312 C 24.34375 8.347656 24.34375 8.375 24.34375 8.40625 C 24.34375 8.476562 24.34375 8.550781 24.34375 8.625 C 24.34375 8.699219 24.34375 8.773438 24.34375 8.847656 C 24.34375 8.992188 24.34375 9.140625 24.34375 9.285156 C 24.480469 9.285156 24.621094 9.289062 24.757812 9.289062 C 24.800781 9.289062 24.847656 9.289062 24.894531 9.289062 C 25.554688 9.304688 25.554688 9.304688 26.140625 9.042969 C 26.28125 8.902344 26.351562 8.75 26.351562 8.554688 C 26.34375 8.367188 26.300781 8.164062 26.160156 8.03125 C 25.839844 7.800781 25.34375 7.855469 24.96875 7.847656 C 24.902344 7.84375 24.835938 7.84375 24.769531 7.839844 C 24.726562 7.839844 24.683594 7.839844 24.640625 7.835938 C 24.621094 7.835938 24.601562 7.835938 24.578125 7.835938 C 24.550781 7.835938 24.550781 7.835938 24.523438 7.835938 C 24.507812 7.835938 24.492188 7.832031 24.472656 7.832031 C 24.425781 7.835938 24.425781 7.835938 24.367188 7.882812 Z M 24.367188 7.882812 "/>
<path style=" stroke:none;fill-rule:nonzero;fill:rgb(100%,100%,100%);fill-opacity:1;" d="M 29.179688 6.414062 C 29.90625 6.414062 30.632812 6.414062 31.382812 6.414062 C 31.382812 6.738281 31.382812 7.0625 31.382812 7.398438 C 31.382812 7.601562 31.382812 7.808594 31.382812 8.015625 C 31.386719 8.34375 31.386719 8.667969 31.386719 8.996094 C 31.386719 9.234375 31.386719 9.472656 31.390625 9.710938 C 31.390625 9.835938 31.390625 9.960938 31.390625 10.089844 C 31.390625 10.207031 31.390625 10.328125 31.390625 10.445312 C 31.390625 10.488281 31.390625 10.53125 31.390625 10.574219 C 31.390625 10.96875 31.425781 11.339844 31.703125 11.640625 C 31.96875 11.882812 32.289062 11.976562 32.644531 11.96875 C 32.964844 11.953125 33.296875 11.851562 33.515625 11.609375 C 33.78125 11.265625 33.785156 10.867188 33.785156 10.453125 C 33.785156 10.410156 33.785156 10.363281 33.785156 10.320312 C 33.789062 10.199219 33.789062 10.082031 33.789062 9.960938 C 33.789062 9.835938 33.789062 9.710938 33.789062 9.585938 C 33.789062 9.351562 33.789062 9.113281 33.792969 8.878906 C 33.792969 8.609375 33.792969 8.339844 33.792969 8.070312 C 33.796875 7.519531 33.796875 6.964844 33.796875 6.414062 C 34.078125 6.410156 34.359375 6.410156 34.640625 6.410156 C 34.769531 6.410156 34.902344 6.410156 35.03125 6.40625 C 35.15625 6.40625 35.28125 6.40625 35.410156 6.40625 C 35.457031 6.40625 35.503906 6.40625 35.550781 6.40625 C 35.621094 6.40625 35.6875 6.40625 35.753906 6.40625 C 35.773438 6.40625 35.792969 6.40625 35.816406 6.40625 C 35.832031 6.40625 35.851562 6.40625 35.871094 6.40625 C 35.886719 6.40625 35.902344 6.40625 35.917969 6.40625 C 35.957031 6.414062 35.957031 6.414062 36 6.476562 C 36.003906 6.53125 36.003906 6.582031 36.003906 6.632812 C 36.003906 6.648438 36.003906 6.664062 36.003906 6.679688 C 36.003906 6.734375 36.003906 6.789062 36.003906 6.839844 C 36.003906 6.878906 36.003906 6.917969 36.003906 6.957031 C 36.003906 7.0625 36.003906 7.164062 36.003906 7.269531 C 36.003906 7.378906 36.003906 7.488281 36.003906 7.597656 C 36.003906 7.785156 36.003906 7.96875 36.003906 8.152344 C 36.003906 8.367188 36.003906 8.578125 36.003906 8.789062 C 36.003906 9.015625 36.003906 9.246094 36.003906 9.472656 C 36.003906 9.535156 36.003906 9.601562 36.003906 9.667969 C 36.003906 10.058594 36.003906 10.449219 35.992188 10.839844 C 35.988281 10.878906 35.988281 10.878906 35.988281 10.917969 C 35.960938 11.683594 35.699219 12.378906 35.136719 12.914062 C 34.546875 13.441406 33.792969 13.648438 33.011719 13.652344 C 32.988281 13.652344 32.964844 13.652344 32.9375 13.652344 C 32.882812 13.652344 32.832031 13.652344 32.777344 13.652344 C 32.699219 13.652344 32.621094 13.652344 32.542969 13.652344 C 31.582031 13.65625 30.664062 13.503906 29.945312 12.820312 C 29.734375 12.601562 29.582031 12.347656 29.460938 12.070312 C 29.453125 12.058594 29.449219 12.042969 29.441406 12.03125 C 29.363281 11.847656 29.3125 11.664062 29.273438 11.472656 C 29.265625 11.453125 29.261719 11.433594 29.257812 11.414062 C 29.183594 11.046875 29.171875 10.675781 29.175781 10.304688 C 29.175781 10.261719 29.175781 10.21875 29.175781 10.175781 C 29.175781 10.058594 29.175781 9.945312 29.175781 9.832031 C 29.175781 9.710938 29.175781 9.589844 29.175781 9.46875 C 29.175781 9.242188 29.175781 9.015625 29.175781 8.789062 C 29.175781 8.480469 29.175781 8.171875 29.179688 7.863281 C 29.179688 7.378906 29.179688 6.898438 29.179688 6.414062 Z M 29.179688 6.414062 "/>
<path style=" stroke:none;fill-rule:nonzero;fill:rgb(100%,100%,100%);fill-opacity:1;" d="M 0.0429688 6.414062 C 0.0859375 6.40625 0.0859375 6.40625 0.140625 6.40625 C 0.171875 6.40625 0.171875 6.40625 0.203125 6.40625 C 0.222656 6.40625 0.246094 6.40625 0.269531 6.40625 C 0.292969 6.40625 0.316406 6.40625 0.34375 6.40625 C 0.421875 6.40625 0.503906 6.40625 0.585938 6.40625 C 0.644531 6.40625 0.699219 6.40625 0.757812 6.40625 C 0.882812 6.40625 1.007812 6.40625 1.132812 6.40625 C 1.3125 6.40625 1.492188 6.40625 1.671875 6.40625 C 1.960938 6.40625 2.253906 6.40625 2.546875 6.40625 C 2.828125 6.410156 3.113281 6.410156 3.394531 6.410156 C 3.414062 6.410156 3.429688 6.410156 3.449219 6.410156 C 3.535156 6.410156 3.625 6.410156 3.710938 6.410156 C 4.4375 6.410156 5.164062 6.410156 5.890625 6.414062 C 5.890625 6.910156 5.890625 7.410156 5.890625 7.925781 C 5.808594 7.945312 5.746094 7.949219 5.660156 7.949219 C 5.648438 7.949219 5.632812 7.949219 5.617188 7.949219 C 5.570312 7.949219 5.519531 7.949219 5.472656 7.949219 C 5.4375 7.949219 5.402344 7.949219 5.367188 7.949219 C 5.292969 7.949219 5.21875 7.949219 5.140625 7.949219 C 5.023438 7.949219 4.90625 7.949219 4.789062 7.953125 C 4.449219 7.953125 4.113281 7.953125 3.777344 7.953125 C 3.589844 7.957031 3.40625 7.957031 3.21875 7.957031 C 3.121094 7.957031 3.023438 7.957031 2.921875 7.957031 C 2.832031 7.957031 2.738281 7.957031 2.644531 7.957031 C 2.613281 7.957031 2.578125 7.957031 2.542969 7.957031 C 2.496094 7.957031 2.453125 7.957031 2.40625 7.960938 C 2.367188 7.960938 2.367188 7.960938 2.328125 7.960938 C 2.304688 7.960938 2.285156 7.964844 2.265625 7.96875 C 2.066406 8.269531 2.210938 8.6875 2.203125 9.046875 C 3.328125 9.046875 4.453125 9.046875 5.613281 9.046875 C 5.613281 9.53125 5.613281 10.015625 5.613281 10.515625 C 4.492188 10.515625 3.375 10.515625 2.222656 10.515625 C 2.222656 10.972656 2.222656 11.425781 2.222656 11.898438 C 3.46875 11.898438 4.714844 11.898438 6 11.898438 C 6.023438 12.839844 6.023438 12.839844 5.921875 13.011719 C 5.753906 13.175781 5.523438 13.25 5.3125 13.339844 C 5.199219 13.386719 5.085938 13.441406 4.976562 13.492188 C 4.859375 13.542969 4.746094 13.542969 4.621094 13.542969 C 4.601562 13.542969 4.582031 13.542969 4.5625 13.542969 C 4.496094 13.542969 4.433594 13.542969 4.367188 13.542969 C 4.320312 13.542969 4.273438 13.542969 4.230469 13.542969 C 4.101562 13.542969 3.976562 13.542969 3.851562 13.542969 C 3.773438 13.542969 3.691406 13.542969 3.613281 13.542969 C 3.367188 13.542969 3.121094 13.542969 2.875 13.542969 C 2.589844 13.542969 2.304688 13.542969 2.019531 13.542969 C 1.800781 13.546875 1.582031 13.546875 1.363281 13.546875 C 1.230469 13.546875 1.097656 13.546875 0.96875 13.546875 C 0.84375 13.546875 0.71875 13.546875 0.597656 13.546875 C 0.550781 13.546875 0.507812 13.546875 0.460938 13.546875 C 0.398438 13.546875 0.335938 13.546875 0.277344 13.546875 C 0.257812 13.546875 0.238281 13.546875 0.21875 13.546875 C 0.125 13.546875 0.0664062 13.542969 0 13.472656 C -0.0117188 13.421875 -0.0117188 13.421875 -0.0117188 13.355469 C -0.0117188 13.332031 -0.0117188 13.308594 -0.0117188 13.28125 C -0.0117188 13.253906 -0.0117188 13.230469 -0.0117188 13.199219 C -0.0117188 13.171875 -0.0117188 13.144531 -0.0117188 13.113281 C -0.0117188 13.035156 -0.0117188 12.957031 -0.0117188 12.875 C -0.0117188 12.789062 -0.0117188 12.703125 -0.0117188 12.617188 C -0.0117188 12.449219 -0.0117188 12.28125 -0.0117188 12.113281 C -0.0117188 11.917969 -0.0117188 11.722656 -0.0117188 11.527344 C -0.0117188 11.179688 -0.0078125 10.832031 -0.0078125 10.484375 C -0.0078125 10.144531 -0.0078125 9.804688 -0.0078125 9.46875 C -0.0078125 9.445312 -0.0078125 9.425781 -0.0078125 9.40625 C -0.0078125 9.382812 -0.0078125 9.363281 -0.0078125 9.34375 C -0.0078125 8.957031 -0.0078125 8.570312 -0.0078125 8.1875 C -0.0078125 8.050781 -0.0078125 7.914062 -0.0078125 7.777344 C -0.0078125 7.613281 -0.0078125 7.445312 -0.0078125 7.28125 C -0.0078125 7.195312 -0.0078125 7.109375 -0.0078125 7.027344 C -0.0078125 6.949219 -0.0078125 6.871094 -0.0078125 6.792969 C -0.00390625 6.75 -0.0078125 6.710938 -0.0078125 6.667969 C -0.00390625 6.644531 -0.00390625 6.621094 -0.00390625 6.59375 C -0.00390625 6.574219 -0.00390625 6.550781 -0.00390625 6.53125 C 0 6.476562 0 6.476562 0.0429688 6.414062 Z M 0.0429688 6.414062 "/>
<path style=" stroke:none;fill-rule:nonzero;fill:rgb(100%,100%,100%);fill-opacity:1;" d="M 14.742188 6.414062 C 16.941406 6.414062 19.144531 6.414062 21.410156 6.414062 C 21.410156 6.996094 21.410156 7.582031 21.410156 8.183594 C 20.675781 8.183594 19.941406 8.183594 19.1875 8.183594 C 19.1875 9.945312 19.1875 11.703125 19.1875 13.515625 C 18.453125 13.515625 17.71875 13.515625 16.964844 13.515625 C 16.964844 11.757812 16.964844 9.996094 16.964844 8.183594 C 16.230469 8.183594 15.496094 8.183594 14.742188 8.183594 C 14.742188 7.597656 14.742188 7.015625 14.742188 6.414062 Z M 14.742188 6.414062 "/>
<path style=" stroke:none;fill-rule:nonzero;fill:rgb(100%,100%,100%);fill-opacity:1;" d="M 6.539062 6.371094 C 6.839844 6.363281 7.140625 6.363281 7.441406 6.359375 C 7.582031 6.359375 7.722656 6.355469 7.863281 6.355469 C 7.996094 6.351562 8.132812 6.351562 8.265625 6.351562 C 8.316406 6.351562 8.371094 6.351562 8.421875 6.347656 C 8.492188 6.347656 8.566406 6.347656 8.636719 6.347656 C 8.65625 6.347656 8.679688 6.347656 8.699219 6.34375 C 8.792969 6.347656 8.847656 6.351562 8.921875 6.410156 C 8.964844 6.460938 9.003906 6.511719 9.042969 6.5625 C 9.054688 6.578125 9.066406 6.597656 9.078125 6.613281 C 9.113281 6.65625 9.144531 6.699219 9.175781 6.746094 C 9.199219 6.777344 9.222656 6.8125 9.25 6.847656 C 9.261719 6.863281 9.273438 6.882812 9.285156 6.898438 C 9.347656 6.988281 9.410156 7.070312 9.476562 7.15625 C 9.585938 7.304688 9.691406 7.457031 9.800781 7.605469 C 9.875 7.707031 9.945312 7.804688 10.019531 7.90625 C 10.070312 7.972656 10.121094 8.042969 10.171875 8.109375 C 10.195312 8.144531 10.222656 8.179688 10.246094 8.214844 C 10.285156 8.265625 10.320312 8.3125 10.359375 8.363281 C 10.371094 8.378906 10.382812 8.394531 10.394531 8.410156 C 10.464844 8.511719 10.464844 8.511719 10.472656 8.582031 C 10.433594 8.664062 10.375 8.730469 10.316406 8.800781 C 10.289062 8.832031 10.265625 8.863281 10.238281 8.894531 C 10.226562 8.910156 10.214844 8.921875 10.199219 8.9375 C 10.136719 9.015625 10.078125 9.097656 10.019531 9.179688 C 9.941406 9.28125 9.863281 9.382812 9.78125 9.488281 C 9.753906 9.523438 9.730469 9.558594 9.703125 9.589844 C 9.570312 9.765625 9.4375 9.933594 9.300781 10.105469 C 9.230469 10.082031 9.222656 10.070312 9.179688 10.011719 C 9.167969 9.996094 9.160156 9.980469 9.148438 9.964844 C 9.136719 9.949219 9.125 9.929688 9.113281 9.914062 C 9.085938 9.878906 9.0625 9.84375 9.035156 9.804688 C 9.023438 9.789062 9.011719 9.769531 8.996094 9.75 C 8.933594 9.664062 8.871094 9.578125 8.804688 9.488281 C 8.707031 9.355469 8.609375 9.222656 8.515625 9.089844 C 8.382812 8.90625 8.246094 8.722656 8.109375 8.539062 C 8.035156 8.433594 7.957031 8.332031 7.882812 8.230469 C 7.820312 8.144531 7.757812 8.058594 7.695312 7.972656 C 7.558594 7.789062 7.425781 7.605469 7.292969 7.421875 C 7.207031 7.304688 7.121094 7.1875 7.039062 7.074219 C 7.023438 7.054688 7.011719 7.039062 7 7.023438 C 6.933594 6.933594 6.867188 6.84375 6.800781 6.753906 C 6.785156 6.734375 6.773438 6.714844 6.757812 6.695312 C 6.730469 6.660156 6.707031 6.625 6.679688 6.589844 C 6.667969 6.574219 6.65625 6.554688 6.640625 6.539062 C 6.625 6.519531 6.625 6.519531 6.609375 6.496094 C 6.582031 6.457031 6.5625 6.414062 6.539062 6.371094 Z M 6.539062 6.371094 "/>
<path style=" stroke:none;fill-rule:nonzero;fill:rgb(100%,100%,100%);fill-opacity:1;" d="M 12.109375 10.753906 C 12.132812 10.78125 12.132812 10.78125 12.164062 10.824219 C 12.179688 10.847656 12.179688 10.847656 12.195312 10.871094 C 12.214844 10.894531 12.214844 10.894531 12.230469 10.921875 C 12.257812 10.957031 12.28125 10.992188 12.308594 11.03125 C 12.320312 11.046875 12.335938 11.066406 12.347656 11.085938 C 12.410156 11.171875 12.472656 11.257812 12.539062 11.34375 C 12.550781 11.363281 12.5625 11.378906 12.574219 11.398438 C 12.613281 11.449219 12.652344 11.5 12.691406 11.550781 C 12.851562 11.769531 13.011719 11.984375 13.167969 12.203125 C 13.289062 12.375 13.414062 12.542969 13.539062 12.710938 C 13.601562 12.796875 13.667969 12.882812 13.730469 12.972656 C 13.742188 12.988281 13.753906 13.003906 13.769531 13.023438 C 13.882812 13.179688 14 13.335938 14.113281 13.496094 C 14.046875 13.539062 14.035156 13.542969 13.957031 13.542969 C 13.941406 13.542969 13.921875 13.542969 13.902344 13.542969 C 13.882812 13.542969 13.863281 13.542969 13.839844 13.542969 C 13.820312 13.542969 13.796875 13.542969 13.777344 13.542969 C 13.703125 13.546875 13.632812 13.546875 13.5625 13.546875 C 13.511719 13.546875 13.460938 13.546875 13.414062 13.546875 C 13.308594 13.546875 13.207031 13.546875 13.101562 13.546875 C 12.96875 13.546875 12.835938 13.546875 12.703125 13.546875 C 12.601562 13.546875 12.496094 13.546875 12.394531 13.546875 C 12.347656 13.546875 12.296875 13.546875 12.25 13.546875 C 12.179688 13.546875 12.109375 13.546875 12.042969 13.546875 C 12.023438 13.546875 12.003906 13.546875 11.980469 13.546875 C 11.875 13.546875 11.804688 13.542969 11.71875 13.472656 C 11.6875 13.4375 11.6875 13.4375 11.65625 13.394531 C 11.648438 13.378906 11.636719 13.367188 11.625 13.347656 C 11.613281 13.332031 11.601562 13.316406 11.589844 13.300781 C 11.566406 13.265625 11.539062 13.230469 11.515625 13.195312 C 11.503906 13.175781 11.488281 13.15625 11.476562 13.140625 C 11.417969 13.054688 11.359375 12.972656 11.296875 12.886719 C 11.285156 12.871094 11.273438 12.855469 11.261719 12.839844 C 11.171875 12.714844 11.078125 12.589844 10.988281 12.46875 C 10.96875 12.441406 10.949219 12.414062 10.929688 12.390625 C 10.90625 12.363281 10.886719 12.335938 10.867188 12.308594 C 10.835938 12.269531 10.835938 12.269531 10.792969 12.199219 C 10.800781 12.117188 10.835938 12.078125 10.890625 12.019531 C 10.910156 12 10.925781 11.980469 10.945312 11.960938 C 10.964844 11.941406 10.988281 11.917969 11.007812 11.898438 C 11.03125 11.871094 11.054688 11.847656 11.078125 11.820312 C 11.128906 11.765625 11.179688 11.710938 11.234375 11.65625 C 11.335938 11.546875 11.4375 11.4375 11.535156 11.328125 C 11.570312 11.292969 11.601562 11.257812 11.632812 11.222656 C 11.648438 11.203125 11.648438 11.203125 11.667969 11.1875 C 11.6875 11.164062 11.710938 11.140625 11.730469 11.117188 C 11.785156 11.058594 11.839844 10.996094 11.894531 10.9375 C 11.90625 10.925781 11.917969 10.914062 11.929688 10.898438 C 11.949219 10.878906 11.96875 10.855469 11.988281 10.832031 C 12.058594 10.753906 12.058594 10.753906 12.109375 10.753906 Z M 12.109375 10.753906 "/>
</g>
</svg>
