<?xml version="1.0" encoding="UTF-8"?>
<svg version="1.1" xmlns="http://www.w3.org/2000/svg" width="1668" height="741">
<path d="M0 0 C24.35157766 22.8387542 34.5263228 58.65632266 35.88623047 91.04345703 C37.67068571 160.6372113 12.52007189 226.79283325 -18.23828125 288.078125 C-18.81755371 289.23393066 -19.39682617 290.38973633 -19.99365234 291.58056641 C-27.31555999 306.106113 -35.22038235 320.22504031 -43.53710938 334.20214844 C-45.17122788 336.96476554 -46.77928145 339.74073585 -48.37890625 342.5234375 C-56.38995421 356.39647396 -65.13504736 369.71842328 -74.12695312 382.96630859 C-76.01955956 385.75575837 -77.90362043 388.55073488 -79.78515625 391.34765625 C-98.41745953 418.93720682 -118.98694714 445.20232459 -140.76757812 470.36914062 C-142.23193013 472.07074488 -143.6823192 473.78327896 -145.12890625 475.5 C-152.28066332 483.96757472 -159.76494537 492.0718532 -167.38867188 500.11523438 C-169.12784432 501.96092425 -170.85065038 503.82005246 -172.56640625 505.6875 C-179.58506034 513.31642648 -186.79348134 520.73728752 -194.11328125 528.078125 C-194.99322754 528.96266357 -195.87317383 529.84720215 -196.77978516 530.75854492 C-201.22341276 535.1916426 -205.71862658 539.49121868 -210.50244141 543.55664062 C-212.33024502 545.15873234 -214.0369564 546.84299731 -215.73828125 548.578125 C-218.70563448 551.59226082 -221.81173417 554.37729833 -225.015625 557.13671875 C-227.56805008 559.36616561 -230.05715639 561.65813882 -232.55078125 563.953125 C-237.0121647 568.02229891 -241.59772843 571.87790316 -246.296875 575.66796875 C-249.01497632 577.89515137 -251.67891252 580.17040221 -254.33325195 582.47241211 C-260.84184167 588.11509427 -267.49570061 593.50392955 -274.38574219 598.67626953 C-276.38367569 600.18814805 -278.36171223 601.72403415 -280.33984375 603.26171875 C-290.94907708 611.43950234 -301.9117105 619.02310847 -313.05078125 626.453125 C-313.74175903 626.91521362 -314.43273682 627.37730225 -315.14465332 627.85339355 C-327.52446939 636.11763208 -340.14146102 643.94366509 -353.17578125 651.140625 C-353.92754639 651.55634766 -354.67931152 651.97207031 -355.45385742 652.40039062 C-362.24723341 656.12935944 -369.12836217 659.64980689 -376.09960938 663.03320312 C-378.34679397 664.13114263 -380.5812675 665.25276242 -382.81640625 666.375 C-423.74406765 686.67106084 -468.93725522 701.31521891 -514.23828125 707.078125 C-515.43275879 707.2328125 -515.43275879 707.2328125 -516.65136719 707.390625 C-525.53266621 708.36774238 -534.47186306 708.2999052 -543.39599609 708.31835938 C-546.20440952 708.32800862 -549.01207161 708.35908834 -551.8203125 708.390625 C-588.68191627 708.60526982 -622.00190405 697.49731902 -648.86328125 671.828125 C-662.19132234 658.15882539 -670.52518189 641.12531871 -676.23828125 623.078125 C-676.61210938 621.97597656 -676.9859375 620.87382813 -677.37109375 619.73828125 C-678.39385498 615.42149174 -678.41822851 611.48683299 -678.23828125 607.078125 C-677.60664062 607.29428467 -676.975 607.51044434 -676.32421875 607.7331543 C-664.65299651 611.69048064 -652.99443208 615.40683162 -640.92578125 617.953125 C-639.60803711 618.23869263 -639.60803711 618.23869263 -638.26367188 618.5300293 C-621.8307308 621.81691456 -605.13542036 622.45881998 -588.42578125 622.390625 C-587.48650787 622.38880219 -586.5472345 622.38697937 -585.57949829 622.38510132 C-509.80219841 622.14083038 -442.02569441 604.69523897 -379.23828125 561.078125 C-378.6340332 560.66143555 -378.02978516 560.24474609 -377.40722656 559.81542969 C-358.17975147 546.5156236 -339.59083367 531.80231167 -322.3515625 516.01171875 C-320.38158919 514.20924779 -318.38206069 512.45054101 -316.36328125 510.703125 C-305.4099804 501.12365722 -295.03651118 491.03483162 -284.76391602 480.73413086 C-282.41601069 478.380832 -280.06276157 476.0329711 -277.70898438 473.68554688 C-276.19108528 472.16698742 -274.67349619 470.64811804 -273.15625 469.12890625 C-272.46444138 468.43912186 -271.77263275 467.74933746 -271.05986023 467.03865051 C-267.13017449 463.09023816 -263.37497417 459.04093394 -259.74064636 454.81860352 C-257.66836928 452.41788634 -255.51513598 450.09498963 -253.36328125 447.765625 C-249.29288069 443.30289668 -245.43651216 438.715545 -241.64453125 434.015625 C-238.94048513 430.71458168 -236.15691928 427.49069915 -233.36328125 424.265625 C-227.88405905 417.91668499 -222.66129278 411.39599609 -217.53662109 404.75878906 C-216.30243115 403.16116523 -215.06155087 401.5687164 -213.8203125 399.9765625 C-207.05647547 391.2597089 -200.50888075 382.38629665 -193.99658203 373.48046875 C-192.34069738 371.21805484 -190.67841577 368.96046461 -189.015625 366.703125 C-180.71890889 355.38474951 -172.93264781 343.75076208 -165.20068359 332.04150391 C-163.34432234 329.23825523 -161.4761226 326.44344649 -159.6015625 323.65234375 C-120.854299 265.94617457 -81.03327488 201.96299217 -70.23828125 132.078125 C-70.03976562 130.83417969 -69.84125 129.59023437 -69.63671875 128.30859375 C-68.90774643 122.05515476 -69.01320279 115.73958331 -68.98828125 109.453125 C-68.96765625 108.17566406 -68.94703125 106.89820313 -68.92578125 105.58203125 C-68.83483055 83.1399459 -76.49865612 62.05203047 -92.28125 45.90625 C-106.5466441 31.93933475 -123.07234514 25.45432484 -142.92578125 25.640625 C-144.09351074 25.64892334 -145.26124023 25.65722168 -146.46435547 25.66577148 C-194.56128941 26.57687021 -240.10542495 47.92164759 -281.23828125 71.078125 C-282.49970947 71.78775391 -282.49970947 71.78775391 -283.78662109 72.51171875 C-321.34847898 93.87391281 -356.55974803 120.02993177 -389.41015625 148.00170898 C-392.74555708 150.83689825 -396.12810557 153.59819477 -399.55078125 156.328125 C-405.08276497 160.82184785 -410.24522964 165.67671777 -415.40551758 170.58691406 C-419.34925658 174.33642181 -423.37155424 177.9626545 -427.48168945 181.52880859 C-429.48896245 183.29922617 -431.37944998 185.1529069 -433.23828125 187.078125 C-435.69220431 189.61968817 -438.24702392 191.9608235 -440.92602539 194.25927734 C-444.97119064 197.7892066 -448.74464822 201.51863278 -452.484375 205.3671875 C-453.82962874 206.73481718 -455.17534594 208.10199111 -456.52148438 209.46875 C-458.60384522 211.58818625 -460.68293718 213.71048519 -462.75415039 215.84082031 C-464.7799277 217.92146492 -466.81851181 219.98885191 -468.859375 222.0546875 C-469.76918373 223.00016953 -469.76918373 223.00016953 -470.69737244 223.9647522 C-476.94160136 230.24607827 -483.87035295 234.9119408 -492.90527344 235.19165039 C-494.36524395 235.19149295 -495.82522077 235.18589639 -497.28515625 235.17578125 C-498.05635803 235.1743663 -498.82755981 235.17295135 -499.62213135 235.17149353 C-502.07755463 235.16591034 -504.53288567 235.15336095 -506.98828125 235.140625 C-508.65624868 235.13560783 -510.32421754 235.1310453 -511.9921875 235.12695312 C-516.07425412 235.11594641 -520.15625206 235.09869336 -524.23828125 235.078125 C-522.43765576 231.265636 -520.03873759 228.25580509 -517.30078125 225.078125 C-516.5742334 224.2269812 -516.5742334 224.2269812 -515.83300781 223.35864258 C-511.64328045 218.4812211 -507.32011361 213.73512574 -502.94140625 209.02734375 C-500.91397707 206.83717801 -498.94558799 204.60270012 -496.98950195 202.34863281 C-485.65629939 189.38106625 -473.49892434 177.17735051 -461.31079102 165.02026367 C-458.77567449 162.49057196 -456.24603488 159.95548967 -453.71679688 157.41992188 C-452.07974808 155.78353298 -450.44238959 154.14745383 -448.8046875 152.51171875 C-448.06182999 151.76683701 -447.31897247 151.02195526 -446.55360413 150.25450134 C-442.49484732 146.21371927 -438.34912173 142.33627941 -434.00335693 138.60508728 C-431.23951119 136.21409168 -428.59067287 133.70306518 -425.92578125 131.203125 C-421.05242576 126.66463976 -416.03524148 122.38463703 -410.83984375 118.21484375 C-408.28841396 116.11930006 -405.85501352 113.93849345 -403.42578125 111.703125 C-397.92499752 106.70319756 -392.10219134 102.15946118 -386.22460938 97.61865234 C-384.13285555 95.99636048 -382.05202336 94.36078952 -379.97265625 92.72265625 C-369.58831427 84.55928911 -359.01001327 76.72149253 -348.23828125 69.078125 C-347.43632324 68.50562012 -346.63436523 67.93311523 -345.80810547 67.34326172 C-333.87078292 58.82801864 -321.74424623 50.73355882 -309.23828125 43.078125 C-308.27760742 42.4888623 -307.31693359 41.89959961 -306.32714844 41.29248047 C-287.43754628 29.74147972 -268.25597965 18.75913082 -248.32568359 9.09521484 C-246.06714339 7.99473783 -243.81918736 6.87399161 -241.5703125 5.75390625 C-169.69618332 -29.66660916 -67.75019146 -58.17293927 0 0 Z " fill="#FFFFFF" transform="translate(683.23828125,32.921875)"/>
<path d="M0 0 C40.7446875 -0.0309375 40.7446875 -0.0309375 82.3125 -0.0625 C90.79622314 -0.071604 99.27994629 -0.08070801 108.02075195 -0.09008789 C118.61755371 -0.09460449 118.61755371 -0.09460449 123.62419128 -0.09544373 C127.02064203 -0.09635187 130.41707612 -0.10000049 133.81352234 -0.10557556 C152.59953839 -0.13473176 171.38487261 -0.07119524 190.16824186 0.27007401 C191.99068694 0.30173488 193.81321214 0.32915232 195.63579237 0.35173023 C226.76633358 0.75693133 255.01979402 7.51182268 277.3046875 30.36328125 C291.9009904 47.25977974 297.41463905 69.98582949 297.3125 91.8125 C297.30758545 93.05136963 297.3026709 94.29023926 297.29760742 95.56665039 C297.1879987 104.10095379 296.68948514 111.84513542 294 120 C293.47212891 121.63001953 293.47212891 121.63001953 292.93359375 123.29296875 C284.74832097 146.33599741 268.48773313 164.20308962 246.4453125 174.69140625 C227.41259398 183 227.41259398 183 222 183 C222 183.66 222 184.32 222 185 C222.59425781 185.14695312 223.18851563 185.29390625 223.80078125 185.4453125 C243.19989119 190.69483836 257.02456596 204.70729913 267.1875 221.5625 C268.01640747 222.92205811 268.01640747 222.92205811 268.86206055 224.30908203 C279.90221527 242.61813341 289.50373075 261.74709004 299.26953125 280.75390625 C302.27443694 286.60201574 305.30699098 292.43474246 308.375 298.25 C308.7572876 298.97614502 309.1395752 299.70229004 309.53344727 300.45043945 C311.61499527 304.39792584 313.7154388 308.33471359 315.828125 312.265625 C316.29557129 313.14057617 316.76301758 314.01552734 317.24462891 314.91699219 C318.14271749 316.59753291 319.04578261 318.27542678 319.95458984 319.95019531 C320.35371582 320.69881836 320.7528418 321.44744141 321.1640625 322.21875 C321.51936035 322.87810547 321.8746582 323.53746094 322.24072266 324.21679688 C323 326 323 326 323 329 C320.65577946 330.17211027 319.26788902 330.13067122 316.65507507 330.14044189 C315.74240875 330.14615204 314.82974243 330.15186218 313.88941956 330.15774536 C312.88523483 330.15886322 311.88105011 330.15998108 310.84643555 330.16113281 C309.79103577 330.16609772 308.73563599 330.17106262 307.64825439 330.17617798 C304.14440263 330.19082548 300.64059615 330.19760606 297.13671875 330.203125 C294.70774839 330.20887449 292.27877806 330.21463224 289.84980774 330.22039795 C284.75118803 330.23091542 279.65258412 330.23675315 274.55395508 330.24023438 C268.01672495 330.24571948 261.47970306 330.26974493 254.94253826 330.29820633 C249.92313525 330.31681911 244.90378252 330.3220376 239.88434792 330.32357025 C237.47417882 330.32660057 235.06401068 330.33464178 232.65387535 330.34775543 C229.28300462 330.3647865 225.9126442 330.36294258 222.54174805 330.35644531 C221.54363602 330.3656601 220.54552399 330.37487488 219.51716614 330.3843689 C210.9544386 330.3325984 210.9544386 330.3325984 207 327 C205.52777165 324.85722231 204.32153209 322.85027169 203.125 320.5625 C202.56969604 319.53987061 202.56969604 319.53987061 202.00317383 318.49658203 C200.65525945 316.00477934 199.3282231 313.50235278 198 311 C196.83558185 308.82891922 195.67015064 306.65838157 194.50390625 304.48828125 C192.24650939 300.28363067 189.99330543 296.07681528 187.74563599 291.86695862 C183.67805821 284.24983583 179.5623441 276.66000349 175.41650391 269.08520508 C172.32342996 263.43250638 169.25403095 257.76766535 166.19824219 252.09472656 C163.47974508 247.05536327 160.74312884 242.02599038 158 237 C157.14559326 235.43161377 157.14559326 235.43161377 156.27392578 233.83154297 C154.56915316 230.71450435 152.84943803 227.60619446 151.125 224.5 C150.61396729 223.56293213 150.10293457 222.62586426 149.57641602 221.66040039 C143.56847191 210.92323331 136.06595573 201.80852793 124 198 C116.64859831 196.60792606 109.47470567 195.95761247 102 196 C102.00276538 196.67844908 102.00553076 197.35689816 102.00837994 198.0559063 C102.07456723 214.54670566 102.12424513 231.03746308 102.15543652 247.52836418 C102.17092048 255.50317014 102.19203905 263.47788757 102.22631836 271.45263672 C102.25617409 278.4015827 102.27556387 285.35046459 102.28226548 292.29947293 C102.28618428 295.980622 102.29542534 299.66158765 102.31719017 303.34267807 C102.34126238 307.44712286 102.34197247 311.55124663 102.34057617 315.65576172 C102.351362 316.88286865 102.36214783 318.10997559 102.3732605 319.37426758 C102.36913651 320.48768524 102.36501251 321.60110291 102.36076355 322.7482605 C102.36352893 323.7198303 102.36629431 324.69140011 102.36914349 325.69241142 C102.24732614 326.45391565 102.12550879 327.21541988 102 328 C73.70485228 346.86343181 34.00653532 330 0 330 C0 221.1 0 112.2 0 0 Z M103 68 C101.3834373 74.61742344 101.87400087 81.60262038 101.90234375 88.37109375 C101.9037587 89.64855972 101.90517365 90.9260257 101.90663147 92.24220276 C101.91126484 95.61724746 101.92022977 98.99222297 101.93133545 102.36724854 C101.94161574 105.81969611 101.94614319 109.27215087 101.95117188 112.72460938 C101.96217534 119.48309185 101.97889433 126.24154193 102 133 C108.3455404 133.07733403 114.69095544 133.12912504 121.03686523 133.16479492 C123.18665099 133.17969617 125.33640739 133.20002414 127.48608398 133.22631836 C158.03606315 133.90967989 158.03606315 133.90967989 185.21484375 121.7578125 C191.76932919 115.30372399 194.94053176 108.26965199 195.02734375 99.1171875 C194.59362344 90.4205393 192.54210937 81.18848184 186 75 C171.28903863 64.27260386 148.29741007 66.79759092 130.88256836 66.38745117 C127.7800969 66.31170893 124.67824582 66.22128677 121.57617188 66.13085938 C119.5989802 66.08243236 117.62176701 66.03487377 115.64453125 65.98828125 C114.7196138 65.95922195 113.79469635 65.93016266 112.8417511 65.90022278 C111.55847176 65.87480659 111.55847176 65.87480659 110.24926758 65.84887695 C109.49873611 65.82968704 108.74820465 65.81049713 107.97492981 65.79072571 C105.67782725 65.87971823 105.67782725 65.87971823 103 68 Z " fill="#FFFFFF" transform="translate(1026,297)"/>
<path d="M0 0 C33.66 0 67.32 0 102 0 C102.02578125 15.0459375 102.0515625 30.091875 102.078125 45.59375 C102.10329713 55.1367317 102.12947062 64.67969332 102.16015625 74.22265625 C102.20865508 89.36311698 102.253115 104.50351097 102.27099609 119.64404297 C102.28403941 130.6723098 102.31107243 141.70044043 102.35461307 152.72863054 C102.37716754 158.5631202 102.39291429 164.39744225 102.39188385 170.23197937 C102.39113368 175.73466555 102.40922704 181.23698208 102.44116783 186.73957253 C102.44961802 188.74853133 102.45145035 190.75753183 102.44580269 192.76650047 C102.40157834 210.93116727 104.10176464 228.09529533 116.921875 242.0859375 C129.21765052 253.4109939 144.10362422 257.73585961 160.44921875 257.3125 C175.28582126 256.54821912 190.7051657 251.81359936 200.96484375 240.66015625 C213.13466412 224.75296302 213.44960555 206.23059599 213.43237305 187.08984375 C213.44141007 185.03824277 213.45174198 182.98664716 213.46325684 180.93505859 C213.49062514 175.41550632 213.5000837 169.89605705 213.50611091 164.37644577 C213.51554753 158.58954609 213.54175486 152.80272177 213.56611633 147.01586914 C213.60964035 136.07996638 213.63827368 125.14407836 213.66143972 114.20811558 C213.68856729 101.74844569 213.73247392 89.28885216 213.77772844 76.82923698 C213.87037263 51.21953283 213.94214561 25.60980473 214 0 C227.00380502 -0.06939405 240.00756627 -0.12275729 253.01151848 -0.15543652 C259.04924924 -0.17111788 265.08685368 -0.19240122 271.12451172 -0.22631836 C276.94703545 -0.25882368 282.76943739 -0.27683438 288.59204483 -0.28463173 C290.8176986 -0.29019114 293.04334543 -0.3010467 295.2689476 -0.31719017 C298.37720088 -0.33884702 301.4849456 -0.34197185 304.59326172 -0.34057617 C305.52114502 -0.351362 306.44902832 -0.36214783 307.4050293 -0.3732605 C308.24919403 -0.36913651 309.09335876 -0.36501251 309.96310425 -0.36076355 C310.69869505 -0.36352893 311.43428585 -0.36629431 312.19216728 -0.36914349 C314 0 314 0 316 3 C316.19072299 5.43265554 316.26535377 7.7498327 316.24723816 10.1822052 C316.24965257 10.91905869 316.25206699 11.65591217 316.25455457 12.41509455 C316.26020441 14.89246027 316.25151781 17.36956956 316.24291992 19.84692383 C316.24399274 21.62132843 316.24593141 23.39573269 316.24867249 25.1701355 C316.25353358 30.00449697 316.24584187 34.83876655 316.23571944 39.67311692 C316.22692265 44.75600975 316.22869695 49.83889982 316.2290802 54.92179871 C316.22814192 63.48751349 316.21944919 72.053193 316.20581055 80.61889648 C316.19021864 90.44598346 316.18480774 100.27303144 316.1855461 110.1001299 C316.18622958 120.6259719 316.17922907 131.15179933 316.1700995 141.67763686 C316.1679939 144.67127462 316.16726179 147.66490993 316.16686058 150.65854836 C316.16210168 168.78688167 316.14427545 186.90937692 315.56762695 205.0300293 C315.51288727 206.79181503 315.51288727 206.79181503 315.45704174 208.58919239 C314.15103227 244.03324641 302.04165045 276.32212675 276 301 C248.59154047 325.45466565 213.73515308 335.06148233 177.625 335.203125 C176.46162109 335.20882507 175.29824219 335.21452515 174.09960938 335.22039795 C171.64226168 335.22979688 169.18490168 335.23636146 166.72753906 335.24023438 C163.06551403 335.24982836 159.40407862 335.28085525 155.7421875 335.3125 C111.22895558 335.51410658 68.75828649 328.32427707 35.4375 296.8125 C25.60720414 286.66623035 18.69487562 274.83308059 13 262 C12.72172363 261.37963867 12.44344727 260.75927734 12.15673828 260.12011719 C8.49510633 251.76266876 6.17045404 243.22260507 4.25 234.3125 C4.05124268 233.40628906 3.85248535 232.50007812 3.64770508 231.56640625 C0.23574679 214.6250754 -0.29744746 197.38837729 -0.22705078 180.16479492 C-0.22648464 178.18142706 -0.22680716 176.19805878 -0.22793579 174.21469116 C-0.22850241 168.90408257 -0.21686194 163.59356698 -0.20278788 158.28297973 C-0.19016344 152.70569203 -0.18910089 147.12840147 -0.18673706 141.55110168 C-0.18055633 131.02261373 -0.16419234 120.49416802 -0.14403808 109.96569854 C-0.11735959 95.71531348 -0.10667886 81.46491661 -0.09503365 67.21451283 C-0.07630874 44.80964366 -0.03644055 22.40486359 0 0 Z " fill="#FFFFFF" transform="translate(1352,297)"/>
<path d="M0 0 C1.98605692 -0.37259549 1.98605692 -0.37259549 4.47840309 -0.36914349 C5.90037654 -0.3781032 5.90037654 -0.3781032 7.35107672 -0.38724393 C8.39969803 -0.3785054 9.44831933 -0.36976688 10.52871704 -0.36076355 C11.63706858 -0.36332682 12.74542012 -0.3658901 13.88735807 -0.36853105 C17.62638487 -0.37349904 21.36501389 -0.3569261 25.10400391 -0.34057617 C27.77422501 -0.33973055 30.44442123 -0.34007145 33.11463928 -0.34190369 C38.87632034 -0.34347909 44.63789972 -0.33404215 50.39955521 -0.31719017 C58.72999243 -0.29284071 67.06038033 -0.28499907 75.39084928 -0.2812262 C88.90545085 -0.27465533 102.4199982 -0.25467698 115.93457031 -0.22631836 C129.0651014 -0.1987942 142.19561778 -0.17755259 155.32617188 -0.16479492 C156.13512223 -0.16400675 156.94407258 -0.16321858 157.77753659 -0.16240653 C161.83567853 -0.1584915 165.89382059 -0.15470036 169.95196271 -0.15097082 C203.63468985 -0.11985513 237.3173162 -0.06454143 271 0 C271 23.1 271 46.2 271 70 C267.17897098 70.95525725 264.22227074 71.12971136 260.30636597 71.13803101 C259.63465681 71.14085229 258.96294766 71.14367357 258.27088368 71.14658034 C256.02156047 71.15490924 253.77228658 71.15626308 251.52294922 71.15771484 C249.90985984 71.1623841 248.29677178 71.16752785 246.6836853 71.17311096 C243.21115111 71.1843826 239.73862546 71.19282106 236.26607895 71.19923019 C230.77917022 71.20990935 225.29232316 71.23015177 219.80545044 71.25234985 C204.20349942 71.31428415 188.60155275 71.36835671 172.99951172 71.40136719 C164.3819145 71.41968014 155.76442119 71.44856899 147.1469003 71.4893719 C142.58501711 71.51048846 138.02326507 71.5259058 133.46133041 71.52817917 C129.17506085 71.53031786 124.88906491 71.54610666 120.60287857 71.57256889 C119.02664954 71.57979176 117.45038746 71.5818485 115.87414551 71.57846642 C113.72899098 71.57459749 111.58472165 71.58894018 109.43966675 71.60800171 C107.63613645 71.61296693 107.63613645 71.61296693 105.79617119 71.61803246 C104.8734347 71.74408175 103.9506982 71.87013103 103 72 C93.73837067 85.89244399 100.35516727 105.30713823 100 122 C152.14 122 204.28 122 258 122 C258 144.44 258 166.88 258 190 C206.19 190 154.38 190 101 190 C101 211.12 101 232.24 101 254 C158.75 254 216.5 254 276 254 C277.09204219 297.68168744 277.09204219 297.68168744 272.4375 305.6875 C264.5765162 313.14535643 254.00807552 316.69530051 244.16796875 320.8125 C238.8970322 323.02211664 233.73873837 325.4167395 228.59375 327.90625 C223.16230269 330.19661935 217.91001131 330.14646023 212.11155701 330.14044189 C211.21580918 330.14341302 210.32006135 330.14638414 209.39716965 330.1494453 C206.39554829 330.15811736 203.39396688 330.15963926 200.39233398 330.16113281 C198.24047765 330.16576186 196.08862214 330.17078664 193.93676758 330.17617798 C188.09194047 330.18929139 182.24712485 330.19574431 176.40228534 330.20018864 C172.75269144 330.2031197 169.10310069 330.20722447 165.45350838 330.21169281 C154.04010197 330.22536193 142.62670275 330.23503273 131.21328872 330.2388947 C118.02698547 330.24338096 104.84078559 330.26095767 91.65451378 330.2898953 C81.46674683 330.31147912 71.27900906 330.32159713 61.09121948 330.32293582 C55.00343958 330.32398577 48.91575692 330.32993444 42.82800102 330.34775543 C37.10624204 330.36418015 31.38465403 330.36641895 25.66287994 330.35761642 C23.56016394 330.35684317 21.45743895 330.36122649 19.35474586 330.37107468 C16.49011081 330.38370764 13.62608936 330.37796477 10.76145935 330.36749268 C9.92440364 330.37554908 9.08734793 330.38360548 8.22492689 330.39190602 C3.80511395 330.35396907 1.14590627 330.19535157 -2 327 C-2.49909532 324.55335903 -2.49909532 324.55335903 -2.49777794 321.57920837 C-2.50697553 320.44646516 -2.51617312 319.31372194 -2.52564943 318.14665318 C-2.5153623 316.89677081 -2.50507518 315.64688845 -2.49447632 314.35913086 C-2.4976513 313.02223933 -2.5025773 311.68535099 -2.50910914 310.34847164 C-2.52196915 306.66677606 -2.50977517 302.9855185 -2.49358058 299.3038516 C-2.48045104 295.33651514 -2.49031816 291.36922864 -2.49734497 287.40188599 C-2.507441 279.62672141 -2.49613076 271.85172663 -2.47764437 264.07658315 C-2.4569026 255.02847333 -2.45701605 245.98040049 -2.45798953 236.93227136 C-2.45899139 220.79172572 -2.44065098 204.65125925 -2.41162109 188.51074219 C-2.38344501 172.83689939 -2.3692795 157.16312629 -2.37060547 141.48925781 C-2.37068538 140.52395563 -2.37076529 139.55865344 -2.37084763 138.56409967 C-2.37092834 137.60049197 -2.37100905 136.63688428 -2.3710922 135.64407635 C-2.37247095 117.81766898 -2.36069712 99.99129132 -2.34278577 82.16489357 C-2.33674579 75.85291922 -2.33462578 69.54095031 -2.33372116 63.22897339 C-2.33235862 55.54027589 -2.32345354 47.85162844 -2.30505554 40.16295218 C-2.29580443 36.23757568 -2.2897341 32.3122633 -2.29224396 28.38687515 C-2.29442806 24.79696023 -2.28743416 21.20718734 -2.27294691 17.61730206 C-2.26757952 15.69599071 -2.27205 13.77465977 -2.276811 11.85334682 C-2.27036211 10.72060361 -2.26391322 9.58786039 -2.25726891 8.42079163 C-2.25586006 7.43932191 -2.25445121 6.45785219 -2.25299966 5.44664097 C-2 3 -2 3 0 0 Z " fill="#FFFFFF" transform="translate(2,297)"/>
<path d="M0 0 C101.97 0 203.94 0 309 0 C309 27.06 309 54.12 309 82 C275.01 82 241.02 82 206 82 C206 163.51 206 245.02 206 329 C172.01 329 138.02 329 103 329 C103 247.49 103 165.98 103 82 C69.01 82 35.02 82 0 82 C0 54.94 0 27.88 0 0 Z " fill="#FFFFFF" transform="translate(683,297)"/>
<path d="M0 0 C13.9429462 -0.21060913 27.88564442 -0.36852739 41.82985687 -0.46630955 C48.30510183 -0.51324508 54.779277 -0.57688864 61.25390625 -0.67895508 C67.5044859 -0.77687098 73.75403783 -0.83058498 80.00532532 -0.85389519 C82.38804808 -0.87050259 84.77071565 -0.90293472 87.15299988 -0.95157051 C90.49580599 -1.01709086 93.83438766 -1.02589517 97.17773438 -1.02172852 C98.15885193 -1.054086 99.13996948 -1.08644348 100.15081787 -1.11978149 C104.40649905 -1.06253488 106.98685396 -0.83527288 110.3367157 1.9264698 C112.38760188 4.20143195 114.21665513 6.5115184 116 9 C116.55896721 9.73851417 117.11793442 10.47702833 117.69384003 11.23792171 C119.21356727 13.25565516 120.67229596 15.30855666 122.125 17.375 C123.25170811 18.95636798 124.37934379 20.53707541 125.5078125 22.1171875 C126.08176758 22.9225293 126.65572266 23.72787109 127.24707031 24.55761719 C130.12512453 28.56765262 133.06323184 32.53287282 136 36.5 C141.08206731 43.37573812 146.10969635 50.2880613 151.10327148 57.22827148 C154.46618629 61.89539201 157.86216034 66.53625524 161.28491211 71.15966797 C163.61888318 74.31458395 165.94112319 77.47804354 168.26269531 80.64208984 C169.43631914 82.23495928 170.61550917 83.82374029 171.79980469 85.40869141 C173.52628165 87.72088677 175.23346193 90.04624093 176.9375 92.375 C177.4641626 93.07052979 177.9908252 93.76605957 178.53344727 94.48266602 C181.93791564 99.18783526 181.93791564 99.18783526 182.19140625 102.50390625 C180.36309905 106.3343597 177.7463498 109.34953551 175 112.5625 C173.80424229 113.99594006 172.61024042 115.4308466 171.41796875 116.8671875 C170.83192871 117.57069336 170.24588867 118.27419922 169.64208984 118.99902344 C166.68925914 122.59720965 163.94174559 126.3377888 161.171875 130.078125 C157.59714885 134.88728895 153.92327006 139.62016401 150.26171875 144.36328125 C149.01559654 145.97976796 147.77283533 147.59877676 146.53125 149.21875 C140.41574563 157.1946539 134.22354821 165.10816225 128 173 C124.68399754 171.89466585 124.27622505 171.3751416 122.35546875 168.6328125 C121.85080078 167.92189453 121.34613281 167.21097656 120.82617188 166.47851562 C120.28541016 165.70185547 119.74464844 164.92519531 119.1875 164.125 C118.01529368 162.47066589 116.84208386 160.81704245 115.66796875 159.1640625 C115.06259277 158.30844727 114.4572168 157.45283203 113.83349609 156.57128906 C110.93825889 152.51101765 107.96922187 148.50631055 105 144.5 C100.46156075 138.36053333 95.9603251 132.19644069 91.5 126 C85.31916137 117.41628409 79.05214141 108.89798492 72.76611328 100.39111328 C69.25687377 95.64000853 65.75538724 90.88318709 62.25244141 86.12744141 C59.32579251 82.15468511 56.39729226 78.18332154 53.46484375 74.21484375 C47.22528928 65.76659743 41.0293578 57.28993416 34.89208984 48.76708984 C30.98075641 43.34184446 27.03259108 37.94487862 23.0625 32.5625 C22.48983398 31.78575928 21.91716797 31.00901855 21.32714844 30.20874023 C18.2507034 26.03952883 15.16593263 21.87665106 12.07421875 17.71875 C11.43411865 16.85564209 10.79401855 15.99253418 10.13452148 15.10327148 C8.90618552 13.44719007 7.67534751 11.79296064 6.44165039 10.14086914 C5.88856201 9.39442139 5.33547363 8.64797363 4.765625 7.87890625 C4.03520996 6.89772827 4.03520996 6.89772827 3.29003906 5.89672852 C1.996425 3.99474373 1.0084743 2.06379717 0 0 Z " fill="#FFFFFF" transform="translate(303,295)"/>
<path d="M0 0 C1.19824219 1.35083008 1.19824219 1.35083008 2.546875 3.26953125 C3.30859009 4.34062134 3.30859009 4.34062134 4.08569336 5.43334961 C4.90952515 6.61102905 4.90952515 6.61102905 5.75 7.8125 C6.93269023 9.47720478 8.11631402 11.14124663 9.30078125 12.8046875 C9.91260254 13.66674805 10.52442383 14.52880859 11.15478516 15.41699219 C14.03969824 19.45541246 16.98645199 23.44728024 19.9375 27.4375 C20.51717529 28.22286133 21.09685059 29.00822266 21.6940918 29.81738281 C23.46188088 32.2122155 25.23077507 34.60622793 27 37 C34.42121495 47.04094886 41.81171806 57.10066404 49.10791016 67.23291016 C54.75289561 75.06283102 60.48434497 82.82820954 66.22070312 90.59130859 C69.21283194 94.6418496 72.20020101 98.69589633 75.1875 102.75 C75.76250244 103.53020508 76.33750488 104.31041016 76.92993164 105.11425781 C82.29851431 112.40079206 87.65200355 119.69834771 93 127 C89.90777498 129.06148335 89.25891224 129.25113026 85.76260376 129.26069641 C84.8990477 129.26778122 84.03549164 129.27486603 83.14576721 129.28216553 C82.2012822 129.27968811 81.25679718 129.27721069 80.28369141 129.2746582 C79.28666702 129.27976913 78.28964264 129.28488007 77.2624054 129.29014587 C73.95873043 129.30407278 70.65526338 129.30308262 67.3515625 129.30078125 C65.05854209 129.30466675 62.76552241 129.30900112 60.47250366 129.31376648 C55.66230946 129.32123557 50.85218864 129.32093261 46.04199219 129.31567383 C39.87581721 129.30988132 33.7099428 129.3268018 27.54381752 129.3500185 C22.80663291 129.36474696 18.0695208 129.36562869 13.33231735 129.36250877 C11.05891703 129.36302253 8.78551271 129.36827041 6.51213455 129.37832069 C3.33292344 129.39064897 0.15429929 129.38391452 -3.02490234 129.37231445 C-3.9653389 129.37995819 -4.90577545 129.38760193 -5.87471008 129.39547729 C-10.74615071 129.35616531 -14.04442513 129.17338937 -18 126 C-19.5546875 124.29272461 -19.5546875 124.29272461 -20.875 122.40234375 C-21.37845947 121.69255371 -21.88191895 120.98276367 -22.40063477 120.25146484 C-22.92842529 119.48785645 -23.45621582 118.72424805 -24 117.9375 C-25.15474841 116.30324443 -26.30970209 114.66913388 -27.46484375 113.03515625 C-28.05120605 112.19871582 -28.63756836 111.36227539 -29.24169922 110.50048828 C-31.98304479 106.60200712 -34.77104834 102.73768809 -37.5625 98.875 C-38.09488281 98.13652832 -38.62726562 97.39805664 -39.17578125 96.63720703 C-43.36788553 90.83617924 -47.63813027 85.09663977 -51.95532227 79.38818359 C-52.8637727 78.18596838 -53.76816313 76.98067173 -54.66796875 75.77197266 C-55.59052501 74.54471582 -56.5320723 73.3315929 -57.48828125 72.13037109 C-58.90625 70.29296875 -58.90625 70.29296875 -61 67 C-60.51067773 63.24514652 -58.87158026 61.42633081 -56.3125 58.6875 C-55.50039063 57.8109375 -54.68828125 56.934375 -53.8515625 56.03125 C-52.9011562 55.0207256 -51.95062736 54.01031645 -51 53 C-49.90303463 51.82348625 -48.80671125 50.64637367 -47.7109375 49.46875 C-45.32763299 46.90954846 -42.940506 44.35398818 -40.55078125 41.80078125 C-35.83268241 36.75615272 -31.15199283 31.67727187 -26.47216797 26.59716797 C-24.97349867 24.97124848 -23.47332336 23.3467319 -21.97265625 21.72265625 C-21.21952148 20.90728394 -21.21952148 20.90728394 -20.45117188 20.07543945 C-19.45177227 18.99399237 -18.45178374 17.9130892 -17.45117188 16.83276367 C-14.90355811 14.078598 -12.37444126 11.31013205 -9.87109375 8.515625 C-9.36779541 7.95689697 -8.86449707 7.39816895 -8.34594727 6.82250977 C-7.38482251 5.7541857 -6.42807117 4.6819064 -5.47631836 3.60522461 C-2.22383868 0 -2.22383868 0 0 0 Z " fill="#FFFFFF" transform="translate(561,498)"/>
</svg>
